<?xml version="1.0" standalone="no"?>
<!DOCTYPE svg PUBLIC "-//W3C//DTD SVG 20010904//EN"
 "http://www.w3.org/TR/2001/REC-SVG-20010904/DTD/svg10.dtd">
<svg version="1.0" xmlns="http://www.w3.org/2000/svg"
 width="98.000000pt" height="98.000000pt" viewBox="0 0 98.000000 98.000000"
 preserveAspectRatio="xMidYMid meet">
<metadata>
Created by potrace 1.14, written by Peter Selinger 2001-2017
</metadata>
<g transform="translate(0.000000,98.000000) scale(0.100000,-0.100000)"
fill="#000000" stroke="none">
<path d="M400 886 c-192 -56 -314 -231 -297 -425 9 -87 60 -193 123 -250 25
-24 75 -57 112 -74 61 -29 76 -32 162 -32 86 0 101 3 162 32 93 44 151 100
196 191 35 72 37 81 37 172 0 91 -2 100 -37 172 -68 136 -188 216 -336 224
-46 2 -95 -2 -122 -10z m158 -217 c64 -11 119 -22 121 -24 5 -6 -41 -259 -49
-268 -12 -14 -260 34 -260 50 0 17 6 17 129 -7 58 -11 106 -18 108 -16 2 2 12
51 22 110 16 96 16 106 2 110 -9 3 -61 13 -115 22 -93 15 -100 15 -112 0 -18
-26 -50 -244 -37 -257 6 -6 65 -20 132 -32 83 -14 121 -25 121 -34 0 -7 -7
-13 -17 -13 -34 0 -249 43 -260 53 -7 5 -13 24 -13 41 0 52 38 257 51 272 15
19 39 18 177 -7z m-28 -67 c0 -21 7 -32 26 -40 30 -14 22 -36 -11 -28 -21 5
-24 1 -32 -42 -5 -31 -13 -47 -23 -47 -8 0 -14 5 -14 10 1 6 5 29 9 52 6 38 5
42 -17 45 -29 4 -21 23 10 23 16 -1 22 5 22 20 0 12 3 25 7 28 14 14 23 6 23
-21z"/>
</g>
</svg>
