<svg
  xmlns="http://www.w3.org/2000/svg"
  xmlns:xlink="http://www.w3.org/1999/xlink"
  preserveAspectRatio="xMidYMid meet"
  version="1.0"
  viewBox="0.0 -0.0 260.6 83.2"
  zoomAndPan="magnify"
  style="fill: rgb(0, 0, 0);"
  role="img"
  aria-label="Yellow and Pink Gradient Horizontal Drip"
>
  <linearGradient
    xmlns:xlink="http://www.w3.org/1999/xlink"
    gradientTransform="rotate(-90 1061.668 1565.7)"
    gradientUnits="userSpaceOnUse"
    id="__id5_szayjn5yfd"
    x1="2585.706"
    x2="2560"
    xlink:actuate="onLoad"
    xlink:show="other"
    xlink:type="simple"
    y1="800"
    y2="580"
  >
    <stop offset=".444" style="stop-color: rgb(76, 157, 237);"></stop>
    <stop offset="1" style="stop-color: rgb(72, 104, 218);"></stop>
  </linearGradient>
  <path
    d="M228,13c1.5,0,2.8,1.3,2.8,2.8c0,1.5-1.3,2.8-2.8,2.8s-2.8-1.3-2.8-2.8C225.2,14.3,226.5,13,228,13z M244.8,38c0,4.4,3.5,7.9,7.9,7.9c4.4,0,7.9-3.5,7.9-7.9c0-4.4-3.5-7.9-7.9-7.9C248.3,30.1,244.8,33.6,244.8,38z M15.8,45.3 c0-4.4-3.5-7.9-7.9-7.9C3.5,37.4,0,41,0,45.3c0,4.4,3.5,7.9,7.9,7.9C12.3,53.2,15.8,49.7,15.8,45.3z M70.8,3.5 c0,1.9,1.6,3.5,3.5,3.5H52.6c-5.1,0-9.3,4.2-9.3,9.3s4.2,9.3,9.3,9.3H29.3c-1.5,0-2.8,1.3-2.8,2.8c0,1.5,1.3,2.8,2.8,2.8h30 c-2.4,0-4.4,2-4.4,4.4c0,2.4,2,4.4,4.4,4.4H27.2c-3.7,0-6.7,3-6.7,6.7c0,3.7,3,6.7,6.7,6.7h23.5c-3.1,0-5.6,2.5-5.6,5.6 c0,3.1,2.5,5.6,5.6,5.6h35.6c-1.9,0-3.5,1.6-3.5,3.5c0,1.9,1.6,3.5,3.5,3.5H60.7c-3.2,0-5.8,2.6-5.8,5.8c0,3.2,2.6,5.8,5.8,5.8h35.5 h68h22c1.9,0,3.5-1.6,3.5-3.5c0-1.9-1.6-3.5-3.5-3.5H208c5.1,0,9.3-4.2,9.3-9.3s-4.2-9.3-9.3-9.3h23.3c1.5,0,2.8-1.3,2.8-2.8 c0-1.5-1.3-2.8-2.8-2.8h-30c2.4,0,4.4-2,4.4-4.4c0-2.4-2-4.4-4.4-4.4h32.1c3.7,0,6.7-3,6.7-6.7c0-3.7-3-6.7-6.7-6.7h-23.5 c3.1,0,5.6-2.5,5.6-5.6s-2.5-5.6-5.6-5.6h-35.6c1.9,0,3.5-1.6,3.5-3.5c0-1.9-1.6-3.5-3.5-3.5h25.6c3.2,0,5.8-2.6,5.8-5.8 c0-3.2-2.6-5.8-5.8-5.8h-35.5h-68h-22C72.3,0,70.8,1.6,70.8,3.5z M35.4,67.5c0-1.5-1.3-2.8-2.8-2.8c-1.5,0-2.8,1.3-2.8,2.8 c0,1.5,1.3,2.8,2.8,2.8C34.1,70.3,35.4,69,35.4,67.5z"
    style='fill: url("#__id5_szayjn5yfd");'
  ></path>
</svg>